<?xml version="1.0" standalone="no"?>
<svg viewBox="0 0 200 200" xmlns="http://www.w3.org/2000/svg">
  <path fill="#32502E" d="M45.4,-77.2C59.2,-70.7,70.9,-59.2,78.7,-45.5C86.5,-31.8,90.4,-15.9,85.1,-3C79.9,9.8,65.5,19.7,54.5,27.9C43.5,36,35.9,42.5,27.4,52C18.9,61.6,9.4,74.1,-2,77.5C-13.4,80.9,-26.7,75.2,-34.1,65C-41.6,54.9,-43,40.3,-47.8,28.7C-52.6,17.1,-60.8,8.6,-65.6,-2.8C-70.4,-14.1,-71.8,-28.2,-66.2,-38.4C-60.7,-48.6,-48,-55,-35.8,-62.3C-23.6,-69.7,-11.8,-78,2,-81.5C15.8,-85,31.7,-83.6,45.4,-77.2Z" transform="translate(100 100)" />
</svg>
